P3
16 16
255
225
130
110
230
135
110
168
64
80
191
83
86
206
99
95
210
100
96
208
99
97
207
100
96
204
97
96
196
92
95
207
113
106
226
132
108
223
138
112
206
134
115
197
97
96
152
64
81
230
132
106
231
132
104
165
58
75
193
82
85
207
92
92
207
98
100
203
113
114
205
134
127
202
97
100
202
90
93
201
96
100
222
128
111
220
119
103
238
177
137
146
57
76
91
21
63
187
79
82
239
137
105
156
54
75
186
76
84
202
88
89
187
87
95
198
111
114
216
166
153
225
197
184
184
101
109
205
99
100
199
94
97
224
116
102
197
100
97
90
18
59
120
49
81
163
58
75
235
135
110
155
52
74
185
77
85
193
86
89
198
98
102
201
114
116
221
176
163
224
190
181
232
214
201
196
100
100
143
52
74
232
163
149
99
23
62
100
29
69
210
136
127
177
65
76
238
142
112
161
54
72
198
100
93
187
74
82
199
96
102
214
137
132
219
159
149
219
169
158
217
177
169
220
173
161
223
185
172
242
214
195
78
6
52
184
104
114
211
136
124
179
67
77
240
147
112
157
51
72
193
99
93
210
105
94
202
103
108
205
112
121
167
95
125
152
84
112
217
162
152
227
194
177
205
157
153
163
94
105
118
43
80
217
142
130
208
134
125
179
67
78
243
149
115
154
49
71
175
61
74
219
138
118
190
90
108
112
42
92
102
32
81
188
137
146
213
167
157
187
120
126
178
105
115
90
16
56
173
99
110
213
146
130
207
136
128
173
63
76
242
151
119
158
54
78
194
79
84
187
89
98
102
35
84
95
28
78
196
132
130
206
129
130
234
162
151
231
157
146
113
44
82
101
29
69
212
142
128
201
136
126
198
129
126
161
53
71
246
157
121
166
53
68
173
93
106
112
51
104
106
44
91
141
75
96
199
115
117
169
86
108
232
135
132
144
48
78
130
58
90
132
58
82
209
135
122
200
127
120
199
139
127
129
34
65
248
156
121
163
66
98
124
72
128
97
32
76
118
45
76
158
92
104
226
104
106
231
142
134
227
134
135
199
91
100
128
54
83
172
97
100
200
130
122
204
139
120
239
196
147
140
42
68
247
156
124
150
52
87
112
55
108
120
61
104
167
104
116
106
28
64
224
95
95
222
113
112
218
123
119
139
56
85
135
55
82
206
129
115
193
124
119
229
174
132
237
204
167
127
40
69
244
157
125
137
53
92
112
60
114
165
104
139
104
36
68
107
31
65
172
60
73
222
103
106
216
110
119
90
21
62
148
66
85
207
141
124
183
120
118
237
196
155
247
211
163
126
52
80
245
152
123
115
51
91
114
56
103
136
93
143
115
50
85
96
28
68
149
56
77
212
104
108
220
153
139
156
103
115
149
66
85
181
107
109
158
83
95
247
204
151
136
49
71
128
75
101
251
157
120
89
26
70
100
38
82
120
67
118
133
81
115
105
29
64
190
77
83
222
105
102
225
137
124
247
204
178
165
99
105
190
123
116
210
149
124
204
129
108
165
74
88
131
80
102
244
149
113
97
30
75
93
29
72
112
61
109
104
39
79
149
52
70
192
85
91
222
105
98
221
120
111
230
175
156
208
152
144
149
79
92
234
171
124
160
59
72
142
62
84
157
112
123
235
142
111
87
22
70
107
47
93
109
52
98
103
33
69
182
72
77
222
101
93
224
110
103
221
113
102
224
148
133
227
185
173
150
71
83
177
83
85
139
61
83
130
57
83
