P2
64 64
255
47
35
34
55
36
62
69
70
156
133
123
113
129
101
112
96
127
118
108
29
39
23
32
25
29
30
21
21
23
13
19
6
4
2
9
26
10
33
6
59
74
85
110
107
105
84
87
50
11
43
68
26
34
42
81
59
89
99
38
78
89
63
44
30
34
28
77
79
69
116
49
87
81
87
131
157
160
127
143
79
124
121
71
34
38
66
25
14
20
16
74
66
11
7
18
0
13
20
7
11
39
102
127
59
105
137
86
83
53
70
24
71
10
21
27
59
21
63
76
87
73
53
59
82
64
58
98
79
66
94
77
66
44
45
26
47
59
124
133
122
113
96
135
64
59
106
129
79
81
81
54
51
1
4
77
98
126
2
21
7
21
25
37
48
120
56
97
112
81
81
56
28
72
38
20
19
43
71
86
63
80
70
121
52
36
70
119
157
150
160
83
96
81
64
55
39
31
67
40
84
31
66
89
80
112
72
107
68
75
34
56
78
102
104
142
76
59
99
66
41
84
33
55
25
28
118
101
174
70
42
96
87
87
106
72
121
198
44
48
6
24
44
68
65
100
86
55
48
49
69
102
62
104
137
127
87
32
85
73
67
105
144
78
54
45
115
161
136
127
80
89
69
169
130
61
48
39
43
20
1
90
114
79
59
70
97
125
81
140
129
174
153
104
96
56
57
144
87
48
62
74
72
68
91
108
69
71
44
62
91
76
58
73
41
48
66
88
156
127
117
78
55
47
62
60
69
108
76
93
100
76
94
99
78
139
68
147
95
91
90
42
25
24
9
77
106
122
119
143
159
157
130
145
177
128
123
97
60
20
51
77
108
43
78
84
66
37
27
43
41
53
21
58
69
40
80
59
46
79
109
158
92
116
103
102
66
20
27
33
75
48
46
75
49
66
33
26
67
116
71
76
81
93
89
68
38
68
68
137
148
196
202
176
146
137
130
115
80
77
110
131
133
49
5
74
107
44
38
132
63
67
62
33
43
67
67
80
75
145
55
64
88
90
72
125
113
116
146
84
74
60
54
31
42
40
14
22
21
22
30
9
94
84
26
37
52
104
134
42
35
37
117
149
176
180
192
161
122
142
120
116
99
70
81
56
93
97
18
45
33
54
14
55
35
47
35
12
39
112
129
51
75
46
40
68
85
64
110
106
96
122
82
66
59
28
26
60
29
24
29
18
11
28
8
11
69
81
35
38
47
58
70
96
65
113
113
181
175
145
154
179
142
140
125
113
87
69
81
33
33
70
99
76
59
45
31
55
84
72
140
158
112
94
131
83
89
135
130
59
21
28
70
78
64
4
55
58
71
93
35
35
35
27
42
45
21
20
12
18
79
81
45
36
101
72
66
34
71
144
191
171
121
163
208
203
186
144
117
111
91
57
48
41
40
41
72
72
87
17
37
35
48
66
104
45
113
86
149
99
83
38
53
117
27
39
46
19
44
32
44
36
81
57
54
36
32
16
32
46
23
23
29
31
64
35
61
97
65
64
37
104
115
152
128
116
170
232
241
240
221
210
187
142
102
83
72
27
18
24
43
57
21
18
8
44
23
0
46
88
12
35
48
36
85
6
2
19
56
29
40
46
25
84
80
24
44
58
51
41
27
41
21
18
30
19
31
37
51
62
90
60
65
28
71
68
126
184
132
151
237
250
254
254
249
231
201
145
99
93
85
58
14
23
32
63
67
19
3
4
3
8
36
43
29
55
50
7
5
13
33
32
12
12
23
84
17
98
112
37
34
16
25
28
16
24
18
47
44
22
38
27
8
15
48
133
158
126
74
85
172
162
151
207
251
254
254
254
243
228
188
121
82
84
91
80
31
18
30
46
79
74
16
17
1
6
29
13
10
19
17
13
12
26
19
55
46
20
42
94
74
80
58
7
30
16
18
8
13
44
81
87
12
53
73
64
24
12
37
95
37
44
47
124
179
174
197
219
254
254
254
249
232
228
183
100
77
79
88
89
69
20
27
27
58
61
11
27
1
2
17
12
8
58
4
17
77
21
40
16
72
56
71
56
42
59
54
35
29
31
21
25
42
99
55
92
67
33
42
31
26
25
71
15
12
17
50
192
199
195
189
236
254
254
254
253
243
226
173
144
92
80
84
89
84
36
41
17
49
49
73
60
30
84
29
20
25
86
96
99
30
2
13
3
19
67
89
79
55
83
74
12
18
13
13
10
27
71
51
63
33
15
28
31
22
18
34
48
41
33
95
202
230
225
208
247
254
254
254
254
246
225
175
221
145
82
84
89
87
46
38
21
37
53
157
115
106
48
16
14
29
14
17
66
89
40
98
161
37
58
34
101
60
39
29
15
7
21
8
6
49
33
16
4
2
5
10
12
18
51
26
28
4
12
131
220
214
198
237
246
254
255
255
253
250
204
170
162
83
77
73
88
91
54
19
17
30
63
85
102
83
72
32
4
32
33
14
2
69
85
160
160
96
92
140
83
63
64
55
21
6
17
3
3
15
15
11
12
4
12
3
6
4
20
29
29
30
37
177
234
206
213
233
243
253
223
174
133
112
107
140
59
67
36
47
59
72
54
15
23
34
51
31
45
42
31
33
7
10
23
1
16
23
0
17
67
91
131
63
0
31
45
30
8
13
4
19
15
10
6
12
11
14
5
3
10
7
25
12
14
24
95
169
193
216
212
185
234
220
180
100
50
46
71
203
50
28
13
27
34
78
60
17
24
41
52
70
49
18
33
9
7
5
10
3
3
0
2
1
1
12
8
40
101
50
37
31
10
13
87
85
22
3
6
17
11
32
11
4
8
13
7
23
18
14
91
133
218
213
189
219
242
199
173
193
90
60
176
235
70
31
24
46
57
73
61
31
37
51
48
25
63
72
8
32
0
9
4
3
3
3
1
1
2
1
61
164
102
83
69
46
3
11
15
30
21
33
5
8
7
12
15
5
13
12
9
24
20
9
31
114
156
213
245
230
253
232
230
200
198
236
234
237
83
60
58
53
68
87
76
53
59
59
11
1
12
32
20
5
2
20
3
9
3
2
2
1
2
2
41
0
24
59
39
45
4
61
54
65
86
68
69
25
5
2
9
3
9
12
13
24
25
11
28
95
123
178
217
240
251
249
236
193
169
178
235
230
93
73
51
55
65
86
81
63
62
17
2
2
10
8
4
13
3
7
1
1
1
2
1
1
3
4
3
1
9
15
16
3
39
42
5
19
52
64
63
64
5
5
3
4
4
10
13
36
28
11
15
68
57
132
236
247
243
252
229
144
107
226
255
185
87
82
53
43
52
68
69
74
59
14
4
3
11
19
34
19
13
6
2
1
1
2
2
1
2
1
12
44
47
16
23
58
0
106
3
32
4
6
15
28
6
9
4
3
3
8
7
13
17
27
32
37
49
34
211
248
243
241
165
109
159
214
172
152
51
41
50
51
47
52
66
80
60
12
2
47
7
16
37
26
12
5
2
2
2
2
1
2
2
3
0
6
63
67
55
17
5
87
23
9
2
7
12
11
3
1
10
16
19
16
27
26
18
28
8
22
28
52
170
250
242
224
182
181
174
185
185
131
125
89
54
59
56
62
75
81
60
17
23
4
24
67
33
26
10
5
3
2
2
2
2
3
9
43
9
10
135
16
8
19
3
52
39
2
6
12
14
27
25
23
10
5
3
3
2
9
11
23
52
25
33
36
125
245
244
228
218
188
148
175
156
98
77
82
62
45
52
66
79
84
52
12
12
20
29
49
76
41
22
0
2
1
2
1
2
16
21
17
10
4
19
8
6
3
5
12
11
11
26
20
23
28
9
16
10
7
17
14
14
18
8
15
11
14
12
20
127
238
248
240
217
164
111
160
168
131
93
77
52
30
36
75
83
83
44
2
35
33
1
121
123
0
13
22
2
2
5
8
3
1
21
33
24
61
4
9
16
11
16
15
14
8
5
8
12
9
5
10
11
14
14
8
1
15
10
19
19
11
15
31
130
243
243
242
212
155
152
216
209
217
192
159
122
55
45
70
86
77
26
1
25
26
4
42
6
5
4
2
2
2
2
2
5
21
74
22
29
25
48
8
11
39
8
10
34
32
6
6
5
8
4
7
8
11
4
5
1
11
57
153
93
25
25
44
106
236
246
244
217
187
193
209
224
224
175
182
177
88
72
65
83
80
34
12
4
4
3
3
9
6
2
2
2
2
3
6
5
16
14
17
21
15
10
7
3
14
1
12
41
7
7
4
9
5
2
41
71
30
15
27
2
89
94
198
201
12
7
9
96
228
243
228
232
219
195
210
209
198
155
182
142
91
80
63
73
75
42
7
2
5
2
3
8
5
3
2
3
2
3
6
10
10
10
7
4
1
7
4
5
3
35
36
29
2
5
8
2
5
2
10
32
31
2
3
0
103
76
183
107
18
6
41
52
196
232
235
225
212
211
202
194
173
141
155
124
117
68
64
70
75
30
3
3
25
2
5
7
0
23
18
46
11
0
18
23
11
17
14
7
4
3
2
3
8
0
0
2
0
5
8
1
15
25
97
60
25
52
75
30
21
83
135
25
34
19
12
43
125
226
227
228
231
200
203
196
167
152
105
102
81
64
67
67
66
24
15
23
7
1
36
15
42
10
30
7
2
33
24
2
11
2
21
1
4
4
2
2
18
4
4
19
40
21
11
37
57
7
42
53
56
25
1
81
103
89
32
14
45
27
6
28
68
212
224
236
220
214
206
159
168
137
102
120
87
66
71
63
43
23
5
17
1
3
5
19
16
31
47
19
3
1
1
6
24
25
5
9
5
1
6
14
5
1
6
0
2
0
1
14
14
9
32
40
71
23
0
41
94
102
185
67
30
48
11
4
19
130
227
234
217
199
203
178
168
128
86
112
95
61
59
65
51
15
16
25
2
14
1
2
28
34
21
15
2
8
18
53
6
6
12
3
1
6
7
25
2
1
0
29
36
15
0
7
2
13
15
21
78
36
42
62
42
92
167
91
42
10
29
62
53
147
248
226
216
194
205
191
155
108
65
97
106
79
64
61
74
19
26
0
5
3
2
2
4
22
0
1
14
1
14
93
35
5
10
6
17
34
4
11
20
70
54
20
29
30
58
72
53
47
38
8
33
2
2
137
12
52
42
13
37
57
92
111
190
255
220
253
218
188
164
200
143
92
63
74
77
59
68
46
80
84
66
43
31
0
3
4
2
2
2
0
33
0
2
2
6
13
18
5
7
8
14
15
13
51
36
77
20
24
10
13
4
13
18
10
3
9
4
79
28
14
24
68
156
245
254
255
255
247
185
222
159
187
150
134
87
63
56
49
43
36
69
32
70
83
80
76
81
78
52
21
0
2
2
2
1
1
2
3
24
19
13
7
7
8
5
46
74
0
51
13
3
5
3
10
2
11
3
10
7
8
20
100
82
190
255
245
214
206
245
254
254
224
150
218
180
187
154
115
68
121
56
36
44
52
65
25
56
82
77
72
74
75
75
85
79
41
1
2
2
2
5
16
18
16
15
8
37
19
16
10
0
7
9
3
4
8
6
8
3
4
4
13
21
21
115
214
255
247
238
226
236
245
252
254
255
189
109
176
112
89
91
89
134
133
44
36
27
39
54
26
40
77
77
67
69
74
73
75
79
86
91
49
3
2
5
4
8
14
30
23
6
14
8
7
4
1
1
4
3
8
8
13
13
12
10
25
136
242
253
247
245
243
220
225
243
249
251
254
255
159
109
86
70
75
86
94
69
41
52
56
45
51
42
36
29
73
75
67
64
67
71
71
73
78
87
91
94
49
0
3
24
29
9
2
39
49
56
21
9
6
7
7
7
6
5
13
15
40
181
255
255
253
249
243
236
233
202
237
248
243
247
254
255
124
132
140
95
83
68
56
36
36
31
49
48
49
38
41
26
71
74
69
61
68
67
70
66
69
83
87
87
92
83
40
2
2
2
1
68
44
40
5
7
1
2
3
5
4
8
21
155
255
245
254
254
254
248
233
228
178
219
229
251
227
250
255
250
105
155
138
102
161
60
36
39
38
34
44
33
47
41
45
30
68
72
70
62
69
63
71
62
62
77
85
83
88
85
89
69
8
7
2
1
10
31
12
12
2
3
2
4
8
29
248
244
229
241
252
254
252
244
221
198
131
228
237
227
234
249
248
249
98
184
234
250
173
37
46
46
48
43
39
139
65
47
53
32
70
70
69
67
66
70
60
62
60
72
82
80
76
88
74
85
80
23
26
20
18
14
10
31
2
4
4
9
8
122
237
248
194
249
253
246
243
242
198
152
115
226
244
213
219
233
250
247
78
207
247
233
118
137
177
176
177
197
132
150
62
47
56
40
72
72
71
68
67
68
59
63
59
70
74
77
63
83
75
78
80
52
41
43
40
40
38
30
2
1
2
6
12
142
210
229
205
240
255
224
246
243
177
126
148
240
217
194
172
236
251
229
81
228
251
232
210
213
223
228
230
224
166
79
64
85
74
48
208
89
98
77
81
98
77
70
62
69
72
74
59
71
78
73
70
47
10
34
37
41
66
55
2
5
3
5
15
155
236
146
194
245
254
205
246
238
162
182
167
197
183
185
207
242
251
208
113
220
253
234
237
241
211
196
234
202
108
50
64
79
136
113
204
104
177
214
222
200
191
122
96
62
73
70
58
63
78
64
74
61
17
20
44
73
71
41
4
5
3
10
13
204
243
108
152
250
247
187
250
231
160
147
196
194
210
215
220
241
253
171
151
217
254
235
244
205
186
200
206
170
72
50
64
77
122
149
215
110
158
208
204
208
215
233
175
50
74
68
57
58
71
57
73
74
0
4
3
26
62
66
2
3
8
13
11
252
242
147
84
240
233
180
253
209
135
192
221
190
214
220
221
243
255
133
189
216
252
234
246
177
195
184
161
174
59
52
63
98
132
153
205
119
138
200
210
200
206
231
247
45
75
66
55
55
63
58
72
82
4
4
11
40
43
55
5
10
11
11
53
255
242
173
91
212
211
177
255
168
140
202
194
197
207
224
231
251
255
102
225
212
251
231
234
180
193
134
140
181
50
78
99
113
142
162
189
135
113
196
203
207
221
229
251
53
72
64
54
54
53
66
71
77
23
2
25
34
38
37
4
5
9
8
112
255
232
143
120
190
191
182
253
136
220
176
191
198
213
238
248
251
255
91
234
214
250
225
226
214
167
109
125
180
46
106
145
88
154
168
168
160
86
188
203
206
220
230
247
62
68
60
52
53
49
65
71
73
36
27
57
33
38
24
13
14
7
9
160
252
241
229
184
155
190
182
241
156
252
188
183
215
238
248
249
251
247
106
232
219
247
214
211
235
128
87
166
173
43
144
141
75
176
164
147
179
80
166
204
207
217
229
240
70
66
58
50
46
55
64
69
71
66
89
68
27
33
49
3
7
6
4
188
251
242
222
200
106
194
179
240
216
157
194
209
237
250
247
249
251
228
133
227
227
240
219
177
236
142
141
203
139
40
191
138
87
189
153
114
195
79
147
203
208
211
218
237
82
64
59
48
42
58
64
68
71
70
39
35
29
66
147
7
3
7
9
222
249
238
231
214
146
107
189
240
165
79
224
238
249
247
248
247
251
206
160
229
223
235
225
173
212
143
172
177
73
71
225
142
110
189
148
106
210
79
132
206
206
204
218
228
100
63
62
46
42
56
63
67
70
71
1
20
21
120
154
5
4
5
14
255
251
246
238
216
174
100
153
236
96
70
245
235
248
248
243
249
251
167
196
227
230
221
223
160
153
135
179
103
61
135
216
149
124
186
146
101
212
81
117
209
200
207
209
209
103
66
65
39
47
60
63
68
68
70
8
4
6
91
170
4
6
5
43
255
252
245
244
232
197
119
110
229
81
66
230
241
241
242
244
250
249
132
222
233
229
204
216
136
144
148
152
79
123
178
212
165
136
173
149
103
205
79
97
207
197
203
196
173
85
63
65
36
49
58
64
66
66
65
33
5
7
41
69
8
7
6
65
255
251
239
239
237
187
134
121
216
78
69
207
234
232
238
244
216
254
92
244
228
219
201
210
157
171
180
157
134
150
171
212
165
137
156
145
83
197
81
82
205
195
178
140
102
54
58
62
34
49
60
63
64
65
63
62
2
23
61
44
7
4
14
128
245
248
240
229
214
197
176
147
210
80
72
211
233
228
237
225
211
254
75
248
225
212
198
201
175
176
142
131
69
138
176
211
163
124
156
143
88
184
87
69
167
149
99
73
64
48
55
52
37
48
56
60
63
64
59
78
10
7
31
26
4
12
13
199
251
248
239
233
222
207
171
167
210
85
101
240
226
229
231
220
228
225
79
244
226
210
204
186
167
160
144
87
118
96
192
210
157
123
156
142
87
168
97
68
72
77
64
60
60
45
51
51
38
49
53
56
62
61
58
74
45
12
15
10
5
10
15
236
251
246
239
227
227
209
186
185
208
115
181
233
226
225
223
221
229
183
68
240
229
216
198
165
124
108
136
75
79
100
222
213
143
109
145
138
74
141
118
70
63
59
57
56
62
48
49
59
39
49
53
58
59
58
59
73
35
14
33
115
5
9
25
255
250
244
239
226
224
218
202
208
213
157
151
243
220
211
219
213
232
135
46
224
233
217
194
124
106
100
85
66
62
106
246
210
121
88
165
132
74
119
141
75
68
63
60
58
58
48
43
65
40
50
54
57
59
58
56
70
38
29
47
92
6
10
69
255
251
243
240
233
226
207
164
198
216
150
161
252
223
200
217
215
247
82
41
215
234
212
193
103
101
92
77
66
61
119
246
213
85
82
190
118
70
90
166
72
72
69
65
62
59
50
62
69
36
48
53
59
58
57
58
68
39
33
39
26
5
12
118
253
250
239
235
233
228
202
160
207
218
144
200
253
220
190
214
224
227
53
40
234
233
199
199
96
109
152
86
64
57
169
227
203
69
76
151
139
66
50
195
72
72
72
69
64
54
49
61
68
35
46
52
55
57
56
59
65
35
21
15
8
7
9
162
251
250
239
226
221
219
208
171
216
219
157
222
248
186
191
212
239
176
43
38
128
228
201
200
122
192
149
99
63
111
168
235
174
66
57
152
163
64
48
208
71
73
71
71
71
57
48
60
63
35
43
53
56
56
53
60
64
59
56
18
23
13
9
191
252
250
235
227
228
222
215
176
217
219
183
233
232
126
188
218
250
117
31
36
181
184
161
172
172
166
116
107
60
203
176
229
151
77
53
117
167
65
51
188
92
76
73
72
73
65
44
57
64
36
42
50
56
53
51
60
66
76
38
15
24
