P3
16 16
255
96
125
31
98
117
15
56
69
12
23
28
9
54
65
18
87
111
12
86
98
51
123
128
91
147
149
102
158
161
105
88
95
47
53
63
18
99
126
20
65
81
17
65
89
7
53
67
10
53
68
8
71
98
18
81
100
19
39
58
4
126
131
90
190
183
171
182
170
158
153
136
125
114
101
91
92
81
72
116
109
94
35
35
33
69
85
22
36
44
9
66
83
15
38
49
7
37
45
10
62
79
14
59
79
15
100
110
60
177
165
156
175
145
130
222
182
161
174
123
100
134
99
82
76
64
51
35
34
30
72
80
40
73
80
16
30
40
7
58
74
9
101
120
41
76
91
27
63
71
21
65
78
18
160
153
136
145
124
115
255
236
226
254
247
244
255
213
193
181
125
103
115
81
63
37
28
20
31
30
27
55
64
18
9
10
5
15
17
7
40
45
10
59
76
12
75
100
9
76
85
46
186
175
168
223
203
196
255
255
255
254
250
247
255
213
195
142
89
68
113
76
51
100
70
46
22
24
19
53
62
31
27
41
5
6
7
3
21
16
9
35
41
12
18
25
7
152
150
139
224
215
208
239
227
221
254
254
254
255
255
255
244
199
183
220
165
148
112
73
56
117
85
56
44
42
32
29
30
25
91
116
31
91
102
31
44
43
18
31
32
14
20
25
13
201
196
188
218
207
195
250
244
240
248
234
227
187
151
134
175
121
101
125
79
59
56
43
33
91
71
46
39
34
21
27
30
20
51
65
21
38
56
5
14
20
5
21
24
10
38
43
31
179
172
162
226
203
189
233
220
212
224
174
150
144
91
74
194
178
175
113
69
50
42
28
18
82
60
33
56
47
31
50
55
28
32
44
14
44
69
5
14
16
5
28
31
14
8
9
4
97
112
48
238
208
193
251
248
242
253
237
233
229
149
127
255
246
242
144
86
64
79
46
33
102
64
51
88
69
49
38
42
18
1
2
3
7
9
5
8
12
5
14
18
7
23
26
11
35
40
14
138
133
116
254
248
243
229
173
141
209
142
106
242
189
155
93
59
37
65
46
35
66
48
34
91
74
49
31
33
23
18
18
7
16
25
13
22
33
9
13
15
5
26
31
11
21
23
10
99
90
75
255
246
239
249
216
185
190
136
101
196
134
109
111
66
47
67
46
29
68
56
36
93
86
56
26
28
16
15
21
9
66
82
52
42
42
25
15
15
9
51
59
28
16
19
9
95
90
69
255
249
244
240
212
187
207
159
124
250
221
198
218
186
166
132
110
94
68
57
43
89
90
62
12
13
7
20
26
14
19
24
15
3
4
2
73
92
6
187
208
129
2
3
0
61
60
44
244
238
234
242
226
213
225
197
176
223
199
182
186
154
139
145
128
112
79
67
45
76
80
54
13
20
9
9
8
5
4
5
3
7
8
5
70
90
13
46
56
15
34
35
15
21
23
11
184
176
167
238
229
222
225
207
190
193
174
158
154
135
121
108
94
80
69
67
48
59
66
42
8
15
5
14
13
8
15
14
7
19
31
13
60
82
7
150
165
76
29
32
11
18
23
1
112
108
90
244
236
234
216
198
185
198
181
165
119
102
88
115
106
96
68
68
56
65
70
42
18
23
10
3
3
2
4
5
3
13
20
8
38
46
15
60
56
44
143
144
102
210
209
190
234
229
226
240
220
212
212
174
157
155
142
138
78
67
60
63
53
44
65
56
54
52
57
48
89
88
56
66
65
46
38
38
28
8
9
7
