P2
16 16
255
105
100
58
24
56
92
89
122
143
153
87
55
106
69
72
56
56
81
85
46
124
183
172
139
103
83
109
34
73
37
70
41
38
66
65
101
167
152
191
135
107
66
33
73
70
33
62
105
79
63
67
153
129
240
248
223
139
89
29
29
56
9
15
39
63
82
78
177
208
255
250
223
102
84
76
22
55
32
6
16
36
20
149
216
229
254
255
210
179
82
91
41
29
99
90
40
29
22
196
208
245
237
159
135
90
45
74
34
28
55
44
16
21
40
173
208
223
186
105
182
80
31
63
47
50
37
54
14
28
8
100
215
248
241
170
248
100
54
73
72
38
1
7
10
15
23
35
132
249
186
158
201
66
50
51
76
31
16
20
27
13
27
20
91
247
222
148
149
77
50
57
84
26
17
73
40
14
53
17
89
250
217
169
227
193
114
58
86
12
22
21
3
76
193
2
58
239
229
203
204
161
131
68
75
16
7
4
7
75
48
32
21
177
230
210
177
139
96
65
61
11
12
13
25
67
150
28
19
107
238
201
184
105
107
66
65
20
2
4
16
40
55
139
207
230
225
183
145
69
55
58
54
84
63
36
8
